mastitorrents.com 
http://mastitorrents.com/forums/index.php


The Terminator [Unrated Version] 1984 BRrip 720p Dual Audio [Eng-Hindi] 

General
Complete name                    : The Terminator [Unrated Version] 1984 BRrip 720p Dual Audio [Eng-Hindi] by Arihant.mkv
Format                           : Matroska
File size                        : 594 MiB
Duration                         : 1h 47mn
Overall bit rate                 : 774 Kbps

Video
ID                               : 1
Format                           : AVC
Format/Info                      : Advanced Video Codec
Format profile                   : High@L3.1
Format settings, CABAC           : Yes
Format settings, ReFrames        : 5 frames
Muxing mode                      : Container profile=Unknown@3.1
Codec ID                         : V_MPEG4/ISO/AVC
Duration                         : 1h 47mn
Nominal bit rate                 : 615 Kbps
Width                            : 1 280 pixels
Height                           : 694 pixels
Display aspect ratio             : 1.850
Frame rate                       : 23.976 fps
Resolution                       : 8 bits
Colorimetry                      : 4:2:0
Scan type                        : Progressive
Bits/(Pixel*Frame)               : 0.029
Title                            : BluRay Video by Arihant
Language                         : English

Audio #1
ID                               : 2
Format                           : MPEG Audio
Format version                   : Version 1
Format profile                   : Layer 3
Mode                             : Joint stereo
Format_Settings_ModeExtension    : MS Stereo
Codec ID                         : A_MPEG/L3
Codec ID/Hint                    : MP3
Duration                         : 1h 42mn
Bit rate mode                    : Constant
Bit rate                         : 128 Kbps
Channel(s)                       : 2 channels
Sampling rate                    : 48.0 KHz
Video delay                      : 20s 0ms
Stream size                      : 93.8 MiB (16%)
Title                            : Hindi Audio by Arihant
Writing library                  : LAME3.98r
Encoding settings                : -m j -V 4 -q 2 -lowpass 17 -b 128
Language                         : Hindi

Audio #2
ID                               : 3
Format                           : AAC
Format/Info                      : Advanced Audio Codec
Format version                   : Version 4
Format profile                   : LC
Format settings, SBR             : Yes
Format settings, PS              : No
Codec ID                         : A_AAC
Duration                         : 1h 47mn
Channel(s)                       : 2 channels
Channel positions                : Front: L R
Sampling rate                    : 48.0 KHz
Title                            : English Audio by  Arihant
Language                         : English

--------------------------------------------------------------------------------------------------------------------------------------------------------

Terminator 2 Judgment Day[Unrated Version] 1991 720p BRrip Dual Audio [Eng-Hindi] 

General
Complete name                    :Terminator 2 Judgment Day[Unrated Version] 1991 720p BRrip Dual Audio [Eng-Hindi] by Arihant !!!TDT!!!.mkv
Format                           : Matroska
File size                        : 660 MiB
Duration                         : 2h 33mn
Overall bit rate                 : 602 Kbps

Video
ID                               : 2
Format                           : AVC
Format/Info                      : Advanced Video Codec
Format profile                   : High@L3.1
Format settings, CABAC           : Yes
Format settings, ReFrames        : 5 frames
Muxing mode                      : Container profile=Unknown@3.1
Codec ID                         : V_MPEG4/ISO/AVC
Duration                         : 2h 33mn
Nominal bit rate                 : 508 Kbps
Width                            : 1 264 pixels
Height                           : 528 pixels
Display aspect ratio             : 2.35:1
Original display aspect ratio    : 2.35:1
Frame rate                       : 23.976 fps
Resolution                       : 8 bits
Colorimetry                      : 4:2:0
Scan type                        : Progressive
Bits/(Pixel*Frame)               : 0.032

Audio #1
ID                               : 1
Format                           : MPEG Audio
Format version                   : Version 2
Format profile                   : Layer 3
Mode                             : Joint stereo
Format_Settings_ModeExtension    : MS Stereo
Codec ID                         : A_MPEG/L3
Codec ID/Hint                    : MP3
Duration                         : 2h 33mn
Bit rate mode                    : Constant
Bit rate                         : 64.0 Kbps
Channel(s)                       : 2 channels
Sampling rate                    : 24.0 KHz
Video delay                      : 24ms
Stream size                      : 70.2 MiB (11%)
Title                            : Hindi Audio by Arihant
Language                         : Hindi

Audio #2
ID                               : 3
Format                           : AAC
Format/Info                      : Advanced Audio Codec
Format version                   : Version 4
Format profile                   : LC
Format settings, SBR             : Yes
Format settings, PS              : No
Codec ID                         : A_AAC
Duration                         : 2h 33mn
Channel(s)                       : 2 channels
Channel positions                : Front: L R
Sampling rate                    : 48.0 KHz
Title                            : English Audio by Arihant
Language                         : English

--------------------------------------------------------------------------------------------------------------------------------------------------------

Terminator 3 Rise Of Machine [Unrated Version] [720p][Eng-Hindi] 

General
Complete name                    : Terminator 3 Rise Of Machine [Unrated Version] [720p][Eng-Hindi] by Arihant !!!TDT!!!.mkv
Format                           : Matroska
File size                        : 479 MiB
Duration                         : 1h 49mn
Overall bit rate                 : 614 Kbps


Video
ID                               : 1
Format                           : AVC
Format/Info                      : Advanced Video Codec
Format profile                   : High@L3.1
Format settings, CABAC           : Yes
Format settings, ReFrames        : 5 frames
Muxing mode                      : Container profile=Unknown@3.1
Codec ID                         : V_MPEG4/ISO/AVC
Duration                         : 1h 49mn
Nominal bit rate                 : 474 Kbps
Width                            : 1 280 pixels
Height                           : 528 pixels
Display aspect ratio             : 2.40:1
Frame rate                       : 23.976 fps
Resolution                       : 8 bits
Colorimetry                      : 4:2:0
Scan type                        : Progressive
Bits/(Pixel*Frame)               : 0.029
Title                            : Blu ray Video by Arihant

Audio #1
ID                               : 2
Format                           : AAC
Format/Info                      : Advanced Audio Codec
Format version                   : Version 4
Format profile                   : LC
Format settings, SBR             : Yes
Format settings, PS              : No
Codec ID                         : A_AAC
Duration                         : 1h 49mn
Channel(s)                       : 2 channels
Channel positions                : Front: L R
Sampling rate                    : 48.0 KHz
Title                            : English Audio by Arihant
Language                         : English

Audio #2
ID                               : 3
Format                           : AAC
Format/Info                      : Advanced Audio Codec
Format version                   : Version 4
Format profile                   : LC
Format settings, SBR             : No
Codec ID                         : A_AAC
Duration                         : 1h 49mn
Channel(s)                       : 2 channels
Channel positions                : Front: L R
Sampling rate                    : 44.1 KHz
Title                            : Hindi Audio by Arihant
Language                         : Hindi

--------------------------------------------------------------------------------------------------------------------------------------------------------

Terminator 4 Salvation [Unrated Version] 2009 720p Brrip Dual Audio [ENG-HINDI]

General
Complete name                    : Terminator 4 Salvation [Unrated Version] 2009 720p Brrip Dual Audio [ENG-HINDI] by Arihant .mkv
Format                           : Matroska
File size                        : 887 MiB
Duration                         : 1h 49mn
Overall bit rate                 : 1 131 Kbps


Video
ID                               : 1
Format                           : AVC
Format/Info                      : Advanced Video Codec
Format profile                   : High@L3.1
Format settings, CABAC           : Yes
Format settings, ReFrames        : 4 frames
Codec ID                         : V_MPEG4/ISO/AVC
Duration                         : 1h 49mn
Width                            : 1 280 pixels
Height                           : 528 pixels
Display aspect ratio             : 2.40:1
Frame rate                       : 23.976 fps
Resolution                       : 8 bits
Colorimetry                      : 4:2:0
Scan type                        : Progressive
Title                            : BLURAY VIDEO BY ARIHANT

Audio #1
ID                               : 2
Format                           : AAC
Format/Info                      : Advanced Audio Codec
Format version                   : Version 4
Format profile                   : LC
Format settings, SBR             : Yes
Format settings, PS              : No
Codec ID                         : A_AAC
Duration                         : 1h 49mn
Channel(s)                       : 6 channels
Channel positions                : Front: L C R, Side: L R, LFE
Sampling rate                    : 32.0 KHz
Title                            : ENGLISH AUDIO BY ARIHANT
Language                         : English

Audio #2
ID                               : 3
Format                           : MPEG Audio
Format version                   : Version 1
Format profile                   : Layer 3
Mode                             : Joint stereo
Format_Settings_ModeExtension    : MS Stereo
Codec ID                         : A_MPEG/L3
Codec ID/Hint                    : MP3
Duration                         : 1h 49mn
Bit rate mode                    : Constant
Bit rate                         : 128 Kbps
Channel(s)                       : 2 channels
Sampling rate                    : 48.0 KHz
Video delay                      : 16ms
Stream size                      : 100 MiB (11%)
Title                            : HINDI AUDIO BY ARIHANT
Language                         : Hindi

